<?xml version="1.0" standalone="no"?><!DOCTYPE svg PUBLIC "-//W3C//DTD SVG 1.1//EN" "http://www.w3.org/Graphics/SVG/1.1/DTD/svg11.dtd"><svg t="1560118339133" class="icon" style="" viewBox="0 0 1024 1024" version="1.1" xmlns="http://www.w3.org/2000/svg" p-id="10498" xmlns:xlink="http://www.w3.org/1999/xlink" width="200" height="200"><defs><style type="text/css"></style></defs><path d="M950.656 91.392l-12.48-12.544c-69.248-69.248-181.504-69.248-250.752 0L342.656 423.68c-69.312 69.248-69.312 181.44 0 250.752l12.544 12.48c2.112 2.112 4.224 4.096 6.464 6.08l94.528-94.592C453.632 596.928 451.264 595.072 449.216 592.896L436.608 580.352c-17.216-17.28-17.216-45.376 0-62.656l12.608-12.608L530.688 423.68l121.344-121.344 129.408-129.408c17.344-17.28 45.312-17.28 62.656 0l12.544 12.544c17.344 17.28 17.344 45.376 0 62.656l-100.928 100.928c35.328 42.24 49.344 95.616 42.368 145.664l152.576-152.576C1019.968 272.896 1019.968 160.64 950.656 91.392z" p-id="10499" fill="#1296db"></path><path d="M700.032 342.144 687.36 329.6c-2.048-2.048-4.224-4.096-6.4-6.016L586.496 417.984C588.864 419.648 591.168 421.504 593.344 423.68l12.48 12.544c17.344 17.216 17.344 45.376 0 62.656L568.256 536.512 511.936 592.896l-121.344 121.344L261.12 843.648c-17.28 17.344-45.44 17.344-62.656 0l-12.544-12.48c-17.28-17.28-17.28-45.44 0-62.72l106.816-106.752C256.768 622.144 240 571.968 242.88 523.328l-151.04 151.104c-69.312 69.184-69.312 181.504 0 250.688l12.544 12.48c69.248 69.248 181.504 69.248 250.752 0l344.832-344.768C769.152 523.648 769.152 411.392 700.032 342.144z" p-id="10500" fill="#1296db"></path></svg>