<?xml version="1.0" standalone="no"?><!DOCTYPE svg PUBLIC "-//W3C//DTD SVG 1.1//EN" "http://www.w3.org/Graphics/SVG/1.1/DTD/svg11.dtd"><svg t="1560114331615" class="icon" style="" viewBox="0 0 1024 1024" version="1.1" xmlns="http://www.w3.org/2000/svg" p-id="2649" xmlns:xlink="http://www.w3.org/1999/xlink" width="200" height="200"><defs><style type="text/css"></style></defs><path d="M113.777778 227.555556V170.666667a56.888889 56.888889 0 0 1 56.888889-56.888889h227.555555a56.888889 56.888889 0 0 1 0-113.777778h227.555556a56.888889 56.888889 0 0 1 0 113.777778h227.555555a56.888889 56.888889 0 0 1 56.888889 56.888889v56.888889H113.777778z m739.555555 682.666666a113.777778 113.777778 0 0 1-113.777777 113.777778H284.444444a113.777778 113.777778 0 0 1-113.777777-113.777778V284.444444h682.666666v625.777778zM455.111111 455.111111a56.888889 56.888889 0 0 0-113.777778 0v341.333333a56.888889 56.888889 0 0 0 113.777778 0V455.111111z m227.555556 0a56.888889 56.888889 0 0 0-113.777778 0v341.333333a56.888889 56.888889 0 0 0 113.777778 0V455.111111z" fill="#1296db" p-id="2650"></path></svg>